<?xml version="1.0" encoding="UTF-8" standalone="no"?>
<!-- Created with Inkscape (http://www.inkscape.org/) -->

<svg
   xmlns:dc="http://purl.org/dc/elements/1.1/"
   xmlns:cc="http://creativecommons.org/ns#"
   xmlns:rdf="http://www.w3.org/1999/02/22-rdf-syntax-ns#"
   xmlns:svg="http://www.w3.org/2000/svg"
   xmlns="http://www.w3.org/2000/svg"
   xmlns:sodipodi="http://sodipodi.sourceforge.net/DTD/sodipodi-0.dtd"
   xmlns:inkscape="http://www.inkscape.org/namespaces/inkscape"
   height="414.14093"
   width="414.14093"
   viewBox="0 0 414.14097 414.14093"
   id="svg3427"
   version="1.1"
   inkscape:version="0.91 r13725"
   sodipodi:docname="logo.svg"
   inkscape:export-filename="/home/marcemira/ember-shell/esh-logo.png"
   inkscape:export-xdpi="125.2"
   inkscape:export-ydpi="125.2">
  <sodipodi:namedview
     units="px"
     pagecolor="#ffffff"
     bordercolor="#666666"
     borderopacity="1"
     objecttolerance="10"
     gridtolerance="10"
     guidetolerance="10"
     inkscape:pageopacity="0"
     inkscape:pageshadow="2"
     inkscape:window-width="1920"
     inkscape:window-height="1029"
     id="namedview3431"
     showgrid="false"
     inkscape:snap-midpoints="false"
     inkscape:snap-smooth-nodes="false"
     inkscape:object-nodes="false"
     showguides="true"
     inkscape:guide-bbox="true"
     inkscape:object-paths="false"
     inkscape:snap-nodes="true"
     inkscape:zoom="0.70710678"
     inkscape:cx="-241.59941"
     inkscape:cy="66.691682"
     inkscape:window-x="1920"
     inkscape:window-y="327"
     inkscape:window-maximized="1"
     inkscape:current-layer="svg3427"
     fit-margin-top="0"
     fit-margin-left="0"
     fit-margin-right="0"
     fit-margin-bottom="0" />
  <defs
     id="defs3433" />
  <metadata
     id="metadata3429">
    <rdf:RDF>
      <cc:Work
         rdf:about="">
        <dc:format>image/svg+xml</dc:format>
        <dc:type
           rdf:resource="http://purl.org/dc/dcmitype/StillImage" />
        <dc:title></dc:title>
        <dc:title />
      </cc:Work>
    </rdf:RDF>
  </metadata>
  <path
     style="color:#000000;font-style:normal;font-variant:normal;font-weight:normal;font-stretch:normal;font-size:medium;line-height:normal;font-family:sans-serif;text-indent:0;text-align:start;text-decoration:none;text-decoration-line:none;text-decoration-style:solid;text-decoration-color:#000000;letter-spacing:normal;word-spacing:normal;text-transform:none;direction:ltr;block-progression:tb;writing-mode:lr-tb;baseline-shift:baseline;text-anchor:start;white-space:normal;clip-rule:nonzero;display:inline;overflow:visible;visibility:visible;opacity:1;isolation:auto;mix-blend-mode:normal;color-interpolation:sRGB;color-interpolation-filters:linearRGB;solid-color:#000000;solid-opacity:1;fill:#e3392c;fill-opacity:1;fill-rule:nonzero;stroke:none;stroke-width:25;stroke-linecap:butt;stroke-linejoin:round;stroke-miterlimit:4;stroke-dasharray:none;stroke-dashoffset:0;stroke-opacity:1;color-rendering:auto;image-rendering:auto;shape-rendering:auto;text-rendering:auto;enable-background:accumulate"
     d="m 207.8947,0.00930969 c -5.86372,-0.13841 -11.62984,1.26876001 -16.82813,3.94727001 a 12.50125,12.50125 0 0 0 -1.49609,0.72851 L 40.550947,90.7222 a 12.50125,12.50125 0 0 0 -1.25,0.83985 c -10.05466,6.40028 -16.24918,17.48556 -16.25,29.47264 l 0,172.07227 c 8.2e-4,11.99181 6.20002,23.0814 16.26172,29.48047 a 12.50125,12.50125 0 0 0 1.23828,0.83203 l 149.019533,86.03711 c 10.81954,6.2458 24.18044,6.24583 35,0 l 149.01953,-86.03711 a 12.50125,12.50125 0 0 0 1.25,-0.83985 c 10.05464,-6.40028 16.24918,-17.48557 16.25,-29.47265 l 0,-172.07227 c -8.2e-4,-11.99181 -6.2,-23.08139 -16.26172,-29.48046 A 12.50125,12.50125 0 0 0 373.59001,90.7222 L 224.57048,4.6850897 a 12.50125,12.50125 0 0 0 -1.28906,-0.63867 C 218.52559,1.5568397 213.27785,0.13654969 207.8986,0.00930969 a 12.50125,12.50125 0 0 0 -0.004,0 z m -0.29492,12.49610031 0.004,0 c 3.76605,0.0891 7.45196,1.12306 10.71485,3.00585 a 12.50125,12.50125 0 0 0 0.002,0 l 149.01953,86.0371 a 12.50125,12.50125 0 0 0 0,0.002 c 6.94338,4.00929 11.24945,11.46658 11.25,19.48437 l 0,172.07227 c -5.5e-4,8.01779 -4.30662,15.47507 -11.25,19.48437 a 12.50125,12.50125 0 0 0 0,0.002 L 218.32048,398.6304 c -6.94392,4.00853 -15.55608,4.00851 -22.5,0 L 46.800947,312.59329 a 12.50125,12.50125 0 0 0 0,-0.002 c -6.94338,-4.0093 -11.24945,-11.46658 -11.25,-19.48437 l 0,-172.07227 c 5.5e-4,-8.01779 4.30662,-15.47508 11.25,-19.48437 a 12.50125,12.50125 0 0 0 0,-0.002 L 195.82048,15.51126 a 12.50125,12.50125 0 0 0 0.002,0 c 3.57499,-2.06295 7.65103,-3.10325 11.77735,-3.00585 z"
     id="path3588"
     inkscape:connector-curvature="0" />
  <path
     style="color:#000000;font-style:normal;font-variant:normal;font-weight:normal;font-stretch:normal;font-size:medium;line-height:normal;font-family:sans-serif;text-indent:0;text-align:start;text-decoration:none;text-decoration-line:none;text-decoration-style:solid;text-decoration-color:#000000;letter-spacing:normal;word-spacing:normal;text-transform:none;direction:ltr;block-progression:tb;writing-mode:lr-tb;baseline-shift:baseline;text-anchor:start;white-space:normal;clip-rule:nonzero;display:inline;overflow:visible;visibility:visible;opacity:1;isolation:auto;mix-blend-mode:normal;color-interpolation:sRGB;color-interpolation-filters:linearRGB;solid-color:#000000;solid-opacity:1;fill:#cccccc;fill-opacity:1;fill-rule:nonzero;stroke:none;stroke-width:50;stroke-linecap:butt;stroke-linejoin:round;stroke-miterlimit:4;stroke-dasharray:none;stroke-dashoffset:0;stroke-opacity:1;color-rendering:auto;image-rendering:auto;shape-rendering:auto;text-rendering:auto;enable-background:accumulate"
     d="m 207.30681,25.0015 a 10.001,10.001 0 0 0 -5.23633,1.33594 l -149.019533,86.0371 a 10.001,10.001 0 0 0 -5,8.66015 l 0,172.07227 a 10.001,10.001 0 0 0 5,8.66015 l 149.019533,86.03711 a 10.001,10.001 0 0 0 5.82422,1.30274 l 0,-364.06249 a 10.001,10.001 0 0 0 -0.58789,-0.043 z m 0.58789,364.10546 a 10.001,10.001 0 0 0 0.97266,-0.12891 10.001,10.001 0 0 1 -0.97266,0.12891 z m 0.0312,-364.05859 a 10.001,10.001 0 0 1 4.14453,1.28907 10.001,10.001 0 0 0 -4.14453,-1.28907 z m 3.77734,362.95703 a 10.001,10.001 0 0 1 -0.60351,0.27734 10.001,10.001 0 0 0 0.60351,-0.27734 z m -0.92187,0.42187 a 10.001,10.001 0 0 1 -0.5918,0.20508 10.001,10.001 0 0 0 0.5918,-0.20508 z m -0.94336,0.32422 a 10.001,10.001 0 0 1 -0.65625,0.1543 10.001,10.001 0 0 0 0.65625,-0.1543 z"
     id="path3573"
     inkscape:connector-curvature="0" />
  <text
     xml:space="preserve"
     style="font-style:normal;font-weight:normal;font-size:20px;line-height:125%;font-family:sans-serif;letter-spacing:0px;word-spacing:0px;fill:#000000;fill-opacity:1;stroke:none;stroke-width:1px;stroke-linecap:butt;stroke-linejoin:miter;stroke-opacity:1"
     x="445.01953"
     y="464.07068"
     id="text3623"
     sodipodi:linespacing="125%"><tspan
       sodipodi:role="line"
       id="tspan3625"
       x="445.01953"
       y="464.07068" /></text>
  <path
     style="color:#000000;font-style:normal;font-variant:normal;font-weight:normal;font-stretch:normal;font-size:medium;line-height:normal;font-family:sans-serif;text-indent:0;text-align:start;text-decoration:none;text-decoration-line:none;text-decoration-style:solid;text-decoration-color:#000000;letter-spacing:normal;word-spacing:normal;text-transform:none;direction:ltr;block-progression:tb;writing-mode:lr-tb;baseline-shift:baseline;text-anchor:start;white-space:normal;clip-rule:nonzero;display:inline;overflow:visible;visibility:visible;opacity:1;isolation:auto;mix-blend-mode:normal;color-interpolation:sRGB;color-interpolation-filters:linearRGB;solid-color:#000000;solid-opacity:1;fill:#e3e2db;fill-opacity:1;fill-rule:nonzero;stroke:none;stroke-width:50;stroke-linecap:square;stroke-linejoin:miter;stroke-miterlimit:4;stroke-dasharray:none;stroke-dashoffset:0;stroke-opacity:1;color-rendering:auto;image-rendering:auto;shape-rendering:auto;text-rendering:auto;enable-background:accumulate"
     d="m 207.8947,25.04447 0,364.06249 a 10.001,10.001 0 0 0 4.17578,-1.30274 l 149.01953,-86.03711 a 10.001,10.001 0 0 0 5,-8.66015 l 0,-172.07227 a 10.001,10.001 0 0 0 -5,-8.66015 L 212.07048,26.33744 a 10.001,10.001 0 0 0 -4.17578,-1.29297 z"
     id="path3634"
     inkscape:connector-curvature="0" />
  <g
     transform="matrix(0,-1,1.0910384,0,-1005.6061,448.33966)"
     style="font-style:normal;font-weight:normal;font-size:20px;line-height:125%;font-family:sans-serif;letter-spacing:0px;word-spacing:0px;fill:#e3392c;fill-opacity:1;stroke:none;stroke-width:1px;stroke-linecap:butt;stroke-linejoin:miter;stroke-opacity:1"
     id="text3198">
    <path
       inkscape:connector-curvature="0"
       d="m 100.47571,1091.2436 c 0,0 74.34782,0 74.34782,0 0,0 20.98597,-77.0205 20.98597,-77.0205 0,0 19.65845,0 19.65845,0 0,0 -11.91096,77.0205 -11.91096,77.0205 0,0 75.42533,0 75.42533,0 0,0 -11.91095,-77.0205 -11.91095,-77.0205 0,0 19.65845,0 19.65845,0 0,0 20.98596,77.0205 20.98596,77.0205 0,0 74.34782,0 74.34782,0 0,0 -63.41796,-109.84378 -63.41796,-109.84378 0,0 -154.75196,0 -154.75196,0 0,0 -63.41797,109.84378 -63.41797,109.84378 0,0 0,0 0,0"
       style="font-style:normal;font-variant:normal;font-weight:normal;font-stretch:normal;font-size:180px;line-height:125%;font-family:Minecrafter;-inkscape-font-specification:'Minecrafter, Normal';text-align:start;writing-mode:lr-tb;text-anchor:start;fill:#e3392c;fill-opacity:1"
       id="path3631" />
  </g>
  <g
     transform="matrix(-1.0924254,0,0,1,-118.67427,-559.29148)"
     style="font-style:normal;font-weight:normal;font-size:20px;line-height:125%;font-family:sans-serif;letter-spacing:0px;word-spacing:0px;fill:#5c1d1a;fill-opacity:1;stroke:none;stroke-width:1px;stroke-linecap:butt;stroke-linejoin:miter;stroke-opacity:1"
     id="text3843">
    <path
       d="m -417.77317,850.81438 c 0,0 0,-61.18113 0,-61.18113 0,0 7.65107,1.21699 7.65107,1.21699 0,0 0,64.38136 0,64.38136 0,0 16.37462,9.45363 16.37462,9.45363 0,0 0,-196.63609 0,-196.63609 0,0 -16.37462,9.45363 -16.37462,9.45363 0,0 0,64.38136 0,64.38136 0,0 -7.65107,1.21699 -7.65107,1.21699 0,0 0,-61.18113 0,-61.18113 0,0 -12.24636,7.07024 -12.24636,7.07024 0,0 0,154.75391 0,154.75391 0,0 12.24636,7.07024 12.24636,7.07024 0,0 0,0 0,0"
       style="font-style:normal;font-variant:normal;font-weight:normal;font-stretch:normal;font-size:180px;line-height:125%;font-family:Minecrafter;-inkscape-font-specification:'Minecrafter, Normal';text-align:start;writing-mode:lr-tb;text-anchor:start;fill:#5c1d1a;fill-opacity:1"
       id="path3848"
       inkscape:connector-curvature="0" />
    <path
       d="m -353.98948,709.13437 c 0,0 0,24.74933 0,24.74933 0,0 -33.69447,5.21061 -33.69447,5.21061 0,0 0,129.0916 0,129.0916 0,0 65.85973,38.02307 65.85973,38.02307 0,0 0,-73.84503 0,-73.84503 0,0 -43.72955,-11.91483 -43.72955,-11.91483 0,0 0,-23.38678 0,-23.38678 0,0 43.72955,6.76247 43.72955,6.76247 0,0 0,-177.29942 0,-177.29942 0,0 -65.85973,38.02307 -65.85973,38.02307 0,0 0,53.76652 0,53.76652 0,0 33.69447,-9.18061 33.69447,-9.18061 0,0 0,0 0,0"
       style="font-style:normal;font-variant:normal;font-weight:normal;font-stretch:normal;font-size:180px;line-height:125%;font-family:Minecrafter;-inkscape-font-specification:'Minecrafter, Normal';text-align:start;writing-mode:lr-tb;text-anchor:start;fill:#5c1d1a;fill-opacity:1"
       id="path3850"
       inkscape:connector-curvature="0" />
  </g>
</svg>
